<mxfile host="app.diagrams.net" modified="2021-09-14T22:06:41.006Z" agent="5.0 (Windows NT 10.0; Win64; x64) AppleWebKit/537.36 (KHTML, like Gecko) Chrome/93.0.4577.63 Safari/537.36" etag="-FptlOybv6mA7uC-avm5" version="15.2.7" type="github">
  <diagram id="Vz3pPBi_JEpqn8jML1L7" name="Page-1">
    <mxGraphModel dx="1422" dy="762" grid="1" gridSize="10" guides="1" tooltips="1" connect="1" arrows="1" fold="1" page="1" pageScale="1" pageWidth="850" pageHeight="1100" math="0" shadow="0">
      <root>
        <mxCell id="0" />
        <mxCell id="1" parent="0" />
        <mxCell id="0KGPB0pDorEHkufxvKzZ-130" value="" style="edgeStyle=orthogonalEdgeStyle;rounded=0;orthogonalLoop=1;jettySize=auto;html=1;endArrow=open;endFill=0;strokeWidth=1;" parent="1" source="0KGPB0pDorEHkufxvKzZ-120" target="0KGPB0pDorEHkufxvKzZ-126" edge="1">
          <mxGeometry relative="1" as="geometry">
            <Array as="points">
              <mxPoint x="490" y="240" />
              <mxPoint x="490" y="240" />
            </Array>
          </mxGeometry>
        </mxCell>
        <mxCell id="0KGPB0pDorEHkufxvKzZ-120" value="Owner&lt;br&gt;" style="swimlane;fontStyle=1;align=center;verticalAlign=top;childLayout=stackLayout;horizontal=1;startSize=26;horizontalStack=0;resizeParent=1;resizeParentMax=0;resizeLast=0;collapsible=1;marginBottom=0;html=1;" parent="1" vertex="1">
          <mxGeometry x="160" y="170" width="160" height="170" as="geometry" />
        </mxCell>
        <mxCell id="0KGPB0pDorEHkufxvKzZ-121" value="Name&#xa;&#xa;Phone Number&#xa;&#xa;Email Address" style="text;strokeColor=none;fillColor=none;align=left;verticalAlign=top;spacingLeft=4;spacingRight=4;overflow=hidden;rotatable=0;points=[[0,0.5],[1,0.5]];portConstraint=eastwest;" parent="0KGPB0pDorEHkufxvKzZ-120" vertex="1">
          <mxGeometry y="26" width="160" height="94" as="geometry" />
        </mxCell>
        <mxCell id="0KGPB0pDorEHkufxvKzZ-122" value="" style="line;strokeWidth=1;fillColor=none;align=left;verticalAlign=middle;spacingTop=-1;spacingLeft=3;spacingRight=3;rotatable=0;labelPosition=right;points=[];portConstraint=eastwest;" parent="0KGPB0pDorEHkufxvKzZ-120" vertex="1">
          <mxGeometry y="120" width="160" height="8" as="geometry" />
        </mxCell>
        <mxCell id="0KGPB0pDorEHkufxvKzZ-123" value="Acquire ()" style="text;strokeColor=none;fillColor=none;align=center;verticalAlign=top;spacingLeft=4;spacingRight=4;overflow=hidden;rotatable=0;points=[[0,0.5],[1,0.5]];portConstraint=eastwest;" parent="0KGPB0pDorEHkufxvKzZ-120" vertex="1">
          <mxGeometry y="128" width="160" height="42" as="geometry" />
        </mxCell>
        <mxCell id="0KGPB0pDorEHkufxvKzZ-126" value="Address" style="swimlane;fontStyle=1;align=center;verticalAlign=top;childLayout=stackLayout;horizontal=1;startSize=26;horizontalStack=0;resizeParent=1;resizeParentMax=0;resizeLast=0;collapsible=1;marginBottom=0;html=1;" parent="1" vertex="1">
          <mxGeometry x="580" y="170" width="160" height="230" as="geometry" />
        </mxCell>
        <mxCell id="0KGPB0pDorEHkufxvKzZ-127" value="Street&#xa;&#xa;City&#xa;&#xa;State&#xa;&#xa;Postal Code&#xa;&#xa;Country" style="text;strokeColor=none;fillColor=none;align=left;verticalAlign=top;spacingLeft=4;spacingRight=4;overflow=hidden;rotatable=0;points=[[0,0.5],[1,0.5]];portConstraint=eastwest;" parent="0KGPB0pDorEHkufxvKzZ-126" vertex="1">
          <mxGeometry y="26" width="160" height="144" as="geometry" />
        </mxCell>
        <mxCell id="0KGPB0pDorEHkufxvKzZ-128" value="" style="line;strokeWidth=1;fillColor=none;align=left;verticalAlign=middle;spacingTop=-1;spacingLeft=3;spacingRight=3;rotatable=0;labelPosition=right;points=[];portConstraint=eastwest;" parent="0KGPB0pDorEHkufxvKzZ-126" vertex="1">
          <mxGeometry y="170" width="160" height="8" as="geometry" />
        </mxCell>
        <mxCell id="0KGPB0pDorEHkufxvKzZ-129" value="Validate ()&#xa;&#xa;Assign ()" style="text;strokeColor=none;fillColor=none;align=left;verticalAlign=top;spacingLeft=4;spacingRight=4;overflow=hidden;rotatable=0;points=[[0,0.5],[1,0.5]];portConstraint=eastwest;" parent="0KGPB0pDorEHkufxvKzZ-126" vertex="1">
          <mxGeometry y="178" width="160" height="52" as="geometry" />
        </mxCell>
        <mxCell id="0KGPB0pDorEHkufxvKzZ-131" value="has" style="text;html=1;align=center;verticalAlign=middle;resizable=0;points=[];autosize=1;strokeColor=none;fillColor=none;" parent="1" vertex="1">
          <mxGeometry x="425" y="220" width="30" height="20" as="geometry" />
        </mxCell>
        <mxCell id="0KGPB0pDorEHkufxvKzZ-132" value="1" style="text;html=1;align=center;verticalAlign=middle;resizable=0;points=[];autosize=1;strokeColor=none;fillColor=none;" parent="1" vertex="1">
          <mxGeometry x="550" y="220" width="20" height="20" as="geometry" />
        </mxCell>
        <mxCell id="0KGPB0pDorEHkufxvKzZ-133" value="0..1" style="text;html=1;align=center;verticalAlign=middle;resizable=0;points=[];autosize=1;strokeColor=none;fillColor=none;" parent="1" vertex="1">
          <mxGeometry x="320" y="220" width="40" height="20" as="geometry" />
        </mxCell>
        <mxCell id="0KGPB0pDorEHkufxvKzZ-142" style="edgeStyle=orthogonalEdgeStyle;rounded=0;orthogonalLoop=1;jettySize=auto;html=1;exitX=0.5;exitY=0;exitDx=0;exitDy=0;entryX=0.488;entryY=1.071;entryDx=0;entryDy=0;entryPerimeter=0;endArrow=block;endFill=0;strokeWidth=1;endSize=16;" parent="1" source="0KGPB0pDorEHkufxvKzZ-134" target="0KGPB0pDorEHkufxvKzZ-123" edge="1">
          <mxGeometry relative="1" as="geometry">
            <Array as="points">
              <mxPoint x="120" y="400" />
              <mxPoint x="238" y="400" />
            </Array>
          </mxGeometry>
        </mxCell>
        <mxCell id="0KGPB0pDorEHkufxvKzZ-134" value="Person" style="swimlane;fontStyle=1;align=center;verticalAlign=top;childLayout=stackLayout;horizontal=1;startSize=26;horizontalStack=0;resizeParent=1;resizeParentMax=0;resizeLast=0;collapsible=1;marginBottom=0;html=1;" parent="1" vertex="1">
          <mxGeometry x="40" y="470" width="160" height="160" as="geometry" />
        </mxCell>
        <mxCell id="0KGPB0pDorEHkufxvKzZ-135" value="Insurance Number&#xa;&#xa;Salary" style="text;strokeColor=none;fillColor=none;align=left;verticalAlign=top;spacingLeft=4;spacingRight=4;overflow=hidden;rotatable=0;points=[[0,0.5],[1,0.5]];portConstraint=eastwest;" parent="0KGPB0pDorEHkufxvKzZ-134" vertex="1">
          <mxGeometry y="26" width="160" height="64" as="geometry" />
        </mxCell>
        <mxCell id="0KGPB0pDorEHkufxvKzZ-136" value="" style="line;strokeWidth=1;fillColor=none;align=left;verticalAlign=middle;spacingTop=-1;spacingLeft=3;spacingRight=3;rotatable=0;labelPosition=right;points=[];portConstraint=eastwest;" parent="0KGPB0pDorEHkufxvKzZ-134" vertex="1">
          <mxGeometry y="90" width="160" height="8" as="geometry" />
        </mxCell>
        <mxCell id="0KGPB0pDorEHkufxvKzZ-137" value="Travel ()&#xa;               &#xa;               Work ()" style="text;strokeColor=none;fillColor=none;align=left;verticalAlign=top;spacingLeft=4;spacingRight=4;overflow=hidden;rotatable=0;points=[[0,0.5],[1,0.5]];portConstraint=eastwest;" parent="0KGPB0pDorEHkufxvKzZ-134" vertex="1">
          <mxGeometry y="98" width="160" height="62" as="geometry" />
        </mxCell>
        <mxCell id="0KGPB0pDorEHkufxvKzZ-143" style="edgeStyle=orthogonalEdgeStyle;rounded=0;orthogonalLoop=1;jettySize=auto;html=1;exitX=0.5;exitY=0;exitDx=0;exitDy=0;endArrow=none;endFill=0;endSize=16;strokeWidth=1;" parent="1" source="0KGPB0pDorEHkufxvKzZ-138" edge="1">
          <mxGeometry relative="1" as="geometry">
            <mxPoint x="240" y="400" as="targetPoint" />
            <Array as="points">
              <mxPoint x="360" y="470" />
              <mxPoint x="360" y="400" />
            </Array>
          </mxGeometry>
        </mxCell>
        <mxCell id="0KGPB0pDorEHkufxvKzZ-138" value="Corporation" style="swimlane;fontStyle=1;align=center;verticalAlign=top;childLayout=stackLayout;horizontal=1;startSize=26;horizontalStack=0;resizeParent=1;resizeParentMax=0;resizeLast=0;collapsible=1;marginBottom=0;html=1;" parent="1" vertex="1">
          <mxGeometry x="270" y="470" width="160" height="160" as="geometry" />
        </mxCell>
        <mxCell id="0KGPB0pDorEHkufxvKzZ-139" value="Shares&#xa;&#xa;Corporate Number" style="text;strokeColor=none;fillColor=none;align=left;verticalAlign=top;spacingLeft=4;spacingRight=4;overflow=hidden;rotatable=0;points=[[0,0.5],[1,0.5]];portConstraint=eastwest;" parent="0KGPB0pDorEHkufxvKzZ-138" vertex="1">
          <mxGeometry y="26" width="160" height="64" as="geometry" />
        </mxCell>
        <mxCell id="0KGPB0pDorEHkufxvKzZ-140" value="" style="line;strokeWidth=1;fillColor=none;align=left;verticalAlign=middle;spacingTop=-1;spacingLeft=3;spacingRight=3;rotatable=0;labelPosition=right;points=[];portConstraint=eastwest;" parent="0KGPB0pDorEHkufxvKzZ-138" vertex="1">
          <mxGeometry y="90" width="160" height="8" as="geometry" />
        </mxCell>
        <mxCell id="0KGPB0pDorEHkufxvKzZ-141" value="Hire ()&#xa;&#xa;        FileAnnualReturn()" style="text;strokeColor=none;fillColor=none;align=left;verticalAlign=top;spacingLeft=4;spacingRight=4;overflow=hidden;rotatable=0;points=[[0,0.5],[1,0.5]];portConstraint=eastwest;" parent="0KGPB0pDorEHkufxvKzZ-138" vertex="1">
          <mxGeometry y="98" width="160" height="62" as="geometry" />
        </mxCell>
      </root>
    </mxGraphModel>
  </diagram>
</mxfile>
